# xmcd
#
# Track frame offsets:
#	150
#	11411
#	19592
#	30972
#	42756
#	53165
#	64508
#	79215
#	90366
#	100357
#	111381
#	122477
#	137384
#	151580
#	165067
#	177051
#
# Disc length: 2485 seconds
#
# Revision: 4
# Processed by: cddbd v1.5.2PL0 Copyright (c) Steve Scherf et al.
# Submitted via: EasyCDDAExtractor 12.0.7.1
#
DISCID=a509b310
DTITLE=Don Gibson - The Very Best Of
DYEAR=1997
DGENRE=Country
TTITLE0=Oh, Lonesome Me [Re-Recording]
TTITLE1=Blue Blue Day [Re-Recording]
TTITLE2=Give Myself a Party [Re-Recording]
TTITLE3=I Can't Stop Loving You [Re-Recording]
TTITLE4=Who Cares [Re-Recording]
TTITLE5=Just One Time [Re-Recording]
TTITLE6=Sweet Dreams [Re-Recording]
TTITLE7=Sea of Heartbreak [Re-Recording]
TTITLE8=Lonesome Number One [Re-Recording]
TTITLE9=I Can Mend Your Broken Heart [Re-Recording]
TTITLE10=Country Green [Re-Recording]
TTITLE11=Woman (Sensuous Woman) [Re-Recording]
TTITLE12=Touch the Morning [Re-Recording]
TTITLE13=One Day at a Time [Re-Recording]
TTITLE14=Bring Back Your Love to Me [Re-Recording]
TTITLE15=I Need Thee Every Hour [Re-Recording]
EXTD=CDDBSort:gibson_don,very_best_of_don_gibson - YEAR: 1997
EXTT0=
EXTT1=
EXTT2=
EXTT3=
EXTT4=
EXTT5=
EXTT6=
EXTT7=
EXTT8=
EXTT9=
EXTT10=
EXTT11=
EXTT12=
EXTT13=
EXTT14=
EXTT15=
PLAYORDER=
